ffmpeg version 6.1.1-3ubuntu5 Copyright (c) 2000-2023 the FFmpeg developers
  built with gcc 13 (Ubuntu 13.2.0-23ubuntu3)
  configuration: --prefix=/usr --extra-version=3ubuntu5 --toolchain=hardened --libdir=/usr/lib/x86_64-linux-gnu --incdir=/usr/include/x86_64-linux-gnu --arch=amd64 --enable-gpl --disable-stripping --disable-omx --enable-gnutls --enable-libaom --enable-libass --enable-libbs2b --enable-libcaca --enable-libcdio --enable-libcodec2 --enable-libdav1d --enable-libflite --enable-libfontconfig --enable-libfreetype --enable-libfribidi --enable-libglslang --enable-libgme --enable-libgsm --enable-libharfbuzz --enable-libmp3lame --enable-libmysofa --enable-libopenjpeg --enable-libopenmpt --enable-libopus --enable-librubberband --enable-libshine --enable-libsnappy --enable-libsoxr --enable-libspeex --enable-libtheora --enable-libtwolame --enable-libvidstab --enable-libvorbis --enable-libvpx --enable-libwebp --enable-libx265 --enable-libxml2 --enable-libxvid --enable-libzimg --enable-openal --enable-opencl --enable-opengl --disable-sndio --enable-libvpl --disable-libmfx --enable-libdc1394 --enable-libdrm --enable-libiec61883 --enable-chromaprint --enable-frei0r --enable-ladspa --enable-libbluray --enable-libjack --enable-libpulse --enable-librabbitmq --enable-librist --enable-libsrt --enable-libssh --enable-libsvtav1 --enable-libx264 --enable-libzmq --enable-libzvbi --enable-lv2 --enable-sdl2 --enable-libplacebo --enable-librav1e --enable-pocketsphinx --enable-librsvg --enable-libjxl --enable-shared
  libavutil      58. 29.100 / 58. 29.100
  libavcodec     60. 31.102 / 60. 31.102
  libavformat    60. 16.100 / 60. 16.100
  libavdevice    60.  3.100 / 60.  3.100
  libavfilter     9. 12.100 /  9. 12.100
  libswscale      7.  5.100 /  7.  5.100
  libswresample   4. 12.100 /  4. 12.100
  libpostproc    57.  3.100 / 57.  3.100
Input #0, mov,mp4,m4a,3gp,3g2,mj2, from 'example/testp4.mp4':
  Metadata:
    major_brand     : mp42
    minor_version   : 0
    compatible_brands: mp42mp41isomavc1
    creation_time   : 2020-02-17T15:57:55.000000Z
  Duration: 00:00:17.77, start: 0.000000, bitrate: 14796 kb/s
  Stream #0:0[0x1](und): Video: h264 (High) (avc1 / 0x31637661), yuv420p(tv, bt709, progressive), 3840x2160, 14546 kb/s, 25 fps, 25 tbr, 25 tbn (default)
    Metadata:
      creation_time   : 2020-02-17T15:57:55.000000Z
      handler_name    : L-SMASH Video Handler
      vendor_id       : [0][0][0][0]
      encoder         : AVC Coding
  Stream #0:1[0x2](und): Audio: aac (LC) (mp4a / 0x6134706D), 48000 Hz, stereo, fltp, 253 kb/s (default)
    Metadata:
      creation_time   : 2020-02-17T15:57:55.000000Z
      handler_name    : L-SMASH Audio Handler
      vendor_id       : [0][0][0][0]
Stream mapping:
  Stream #0:0 -> #0:0 (h264 (native) -> h264 (libx264))
Press [q] to stop, [?] for help
[libx264 @ 0x5f6cc7b9f9c0] using cpu capabilities: MMX2 SSE2Fast SSSE3 SSE4.2 AVX FMA3 BMI2 AVX2
[libx264 @ 0x5f6cc7b9f9c0] profile Constrained Baseline, level 3.1, 4:2:0, 8-bit
[libx264 @ 0x5f6cc7b9f9c0] 264 - core 164 r3108 31e19f9 - H.264/MPEG-4 AVC codec - Copyleft 2003-2023 - http://www.videolan.org/x264.html - options: cabac=0 ref=1 deblock=0:0:0 analyse=0:0 me=dia subme=0 psy=1 psy_rd=1.00:0.00 mixed_ref=0 me_range=16 chroma_me=1 trellis=0 8x8dct=0 cqm=0 deadzone=21,11 fast_pskip=1 chroma_qp_offset=0 threads=11 lookahead_threads=11 sliced_threads=1 slices=11 nr=0 decimate=1 interlaced=0 bluray_compat=0 constrained_intra=0 bframes=0 weightp=0 keyint=250 keyint_min=25 scenecut=0 intra_refresh=0 rc_lookahead=0 rc=cbr mbtree=0 bitrate=1000 ratetol=1.0 qcomp=0.60 qpmin=0 qpmax=69 qpstep=4 vbv_maxrate=1000 vbv_bufsize=2000 nal_hrd=none filler=0 ip_ratio=1.40 aq=0
Output #0, rtsp, to 'rtsp://localhost:8554/live':
  Metadata:
    major_brand     : mp42
    minor_version   : 0
    compatible_brands: mp42mp41isomavc1
    encoder         : Lavf60.16.100
  Stream #0:0(und): Video: h264, yuv420p(tv, bt709, progressive), 1280x720, q=2-31, 1000 kb/s, 25 fps, 90k tbn (default)
    Metadata:
      creation_time   : 2020-02-17T15:57:55.000000Z
      handler_name    : L-SMASH Video Handler
      vendor_id       : [0][0][0][0]
      encoder         : Lavc60.31.102 libx264
    Side data:
      cpb: bitrate max/min/avg: 1000000/0/1000000 buffer size: 2000000 vbv_delay: N/A
frame=    0 fps=0.0 q=31.0 size=       0kB time=00:00:00.00 bitrate=N/A speed=   0x    frame=   17 fps=0.0 q=28.0 size=N/A time=00:00:00.64 bitrate=N/A speed=0.902x    frame=   29 fps= 24 q=28.0 size=N/A time=00:00:01.16 bitrate=N/A speed=0.948x    frame=   42 fps= 24 q=28.0 size=N/A time=00:00:01.68 bitrate=N/A speed=0.963x    frame=   55 fps= 24 q=28.0 size=N/A time=00:00:02.20 bitrate=N/A speed=0.971x    frame=   68 fps= 24 q=28.0 size=N/A time=00:00:02.72 bitrate=N/A speed=0.977x    frame=   81 fps= 25 q=27.0 size=N/A time=00:00:03.24 bitrate=N/A speed=0.981x    frame=   94 fps= 25 q=28.0 size=N/A time=00:00:03.76 bitrate=N/A speed=0.983x    frame=  107 fps= 25 q=28.0 size=N/A time=00:00:04.28 bitrate=N/A speed=0.985x    frame=  120 fps= 25 q=28.0 size=N/A time=00:00:04.80 bitrate=N/A speed=0.987x    frame=  133 fps= 25 q=28.0 size=N/A time=00:00:05.32 bitrate=N/A speed=0.988x    frame=  146 fps= 25 q=27.0 size=N/A time=00:00:05.84 bitrate=N/A speed=0.989x    frame=  159 fps= 25 q=27.0 size=N/A time=00:00:06.36 bitrate=N/A speed=0.99x    frame=  172 fps= 25 q=27.0 size=N/A time=00:00:06.88 bitrate=N/A speed=0.99x    frame=  185 fps= 25 q=27.0 size=N/A time=00:00:07.40 bitrate=N/A speed=0.991x    frame=  198 fps= 25 q=27.0 size=N/A time=00:00:07.92 bitrate=N/A speed=0.992x    frame=  211 fps= 25 q=27.0 size=N/A time=00:00:08.44 bitrate=N/A speed=0.992x    frame=  225 fps= 25 q=27.0 size=N/A time=00:00:08.96 bitrate=N/A speed=0.993x    frame=  237 fps= 25 q=27.0 size=N/A time=00:00:09.48 bitrate=N/A speed=0.993x    frame=  250 fps= 25 q=25.0 size=N/A time=00:00:10.00 bitrate=N/A speed=0.993x    frame=  263 fps= 25 q=28.0 size=N/A time=00:00:10.52 bitrate=N/A speed=0.994x    frame=  276 fps= 25 q=28.0 size=N/A time=00:00:11.04 bitrate=N/A speed=0.994x    frame=  289 fps= 25 q=28.0 size=N/A time=00:00:11.56 bitrate=N/A speed=0.994x    frame=  302 fps= 25 q=28.0 size=N/A time=00:00:12.08 bitrate=N/A speed=0.994x    frame=  315 fps= 25 q=27.0 size=N/A time=00:00:12.60 bitrate=N/A speed=0.995x    frame=  328 fps= 25 q=28.0 size=N/A time=00:00:13.12 bitrate=N/A speed=0.995x    frame=  341 fps= 25 q=28.0 size=N/A time=00:00:13.64 bitrate=N/A speed=0.995x    frame=  354 fps= 25 q=27.0 size=N/A time=00:00:14.16 bitrate=N/A speed=0.995x    frame=  367 fps= 25 q=27.0 size=N/A time=00:00:14.68 bitrate=N/A speed=0.996x    frame=  380 fps= 25 q=28.0 size=N/A time=00:00:15.20 bitrate=N/A speed=0.996x    frame=  393 fps= 25 q=27.0 size=N/A time=00:00:15.72 bitrate=N/A speed=0.996x    frame=  406 fps= 25 q=27.0 size=N/A time=00:00:16.24 bitrate=N/A speed=0.996x    frame=  419 fps= 25 q=27.0 size=N/A time=00:00:16.76 bitrate=N/A speed=0.996x    frame=  444 fps= 26 q=28.0 size=N/A time=00:00:17.72 bitrate=N/A speed=1.02x    frame=  445 fps= 25 q=29.0 size=N/A time=00:00:17.80 bitrate=N/A speed=0.996x    frame=  458 fps= 25 q=28.0 size=N/A time=00:00:18.32 bitrate=N/A speed=0.996x    frame=  471 fps= 25 q=28.0 size=N/A time=00:00:18.84 bitrate=N/A speed=0.997x    frame=  484 fps= 25 q=28.0 size=N/A time=00:00:19.36 bitrate=N/A speed=0.997x    frame=  497 fps= 25 q=27.0 size=N/A time=00:00:19.88 bitrate=N/A speed=0.997x    frame=  510 fps= 25 q=28.0 size=N/A time=00:00:20.40 bitrate=N/A speed=0.997x    frame=  523 fps= 25 q=27.0 size=N/A time=00:00:20.92 bitrate=N/A speed=0.997x    [vost#0:0/libx264 @ 0x5f6cc7b9f700] Error submitting a packet to the muxer: Broken pipe
[out#0/rtsp @ 0x5f6cc7b44f40] Error muxing a packet
frame=  536 fps= 25 q=27.0 size=N/A time=00:00:21.44 bitrate=N/A speed=0.997x    [out#0/rtsp @ 0x5f6cc7b44f40] video:2639kB audio:0kB subtitle:0kB other streams:0kB global headers:0kB muxing overhead: unknown
frame=  536 fps= 25 q=27.0 Lsize=N/A time=00:00:21.44 bitrate=N/A speed=0.994x    
[libx264 @ 0x5f6cc7b9f9c0] frame I:3     Avg QP:27.00  size: 19538
[libx264 @ 0x5f6cc7b9f9c0] frame P:534   Avg QP:27.62  size:  4960
[libx264 @ 0x5f6cc7b9f9c0] mb I  I16..4: 100.0%  0.0%  0.0%
[libx264 @ 0x5f6cc7b9f9c0] mb P  I16..4:  0.9%  0.0%  0.0%  P16..4:  5.4%  0.0%  0.0%  0.0%  0.0%    skip:93.7%
[libx264 @ 0x5f6cc7b9f9c0] coded y,uvDC,uvAC intra: 20.1% 35.0% 6.3% inter: 2.7% 1.4% 0.3%
[libx264 @ 0x5f6cc7b9f9c0] i16 v,h,dc,p: 26% 32% 27% 15%
[libx264 @ 0x5f6cc7b9f9c0] i8c dc,h,v,p: 55% 28% 11%  6%
[libx264 @ 0x5f6cc7b9f9c0] kb/s:1008.33
Conversion failed!
